# xmcd
#
# Track frame offsets: 
#        187
#        15145
#        40450
#        56455
#        66437
#        79590
#        96487
#        111160
#        128390
#        145422
#
# Disc length: 2152 seconds
#
# Revision: 8
# Processed by: cddbd v1.5.2PL0 Copyright (c) Steve Scherf et al.
# Submitted via: ExactAudioCopy v1.3
#
DISCID=8008660a
DTITLE=Ray Stevens - Greatest Hits
DYEAR=1987
DGENRE=Country
TTITLE0=The Streak
TTITLE1=Shriner's Convention
TTITLE2=It's Me Again Margaret
TTITLE3=Turn Your Radio On
TTITLE4=Misty
TTITLE5=The Mississipi Squirrel Revival
TTITLE6=Gitarzan
TTITLE7=Ahab The Arab
TTITLE8=Along Came Jones
TTITLE9=Everything Is Beautiful
EXTD=YEAR: 1987
EXTT0=
EXTT1=
EXTT2=
EXTT3=
EXTT4=
EXTT5=
EXTT6=
EXTT7=
EXTT8=
EXTT9=
PLAYORDER=
